<?xml version="1.0" standalone="no"?>
<!DOCTYPE svg PUBLIC "-//W3C//DTD SVG 1.1//EN" "http://www.w3.org/Graphics/SVG/1.1/DTD/svg11.dtd" >
<svg xmlns="http://www.w3.org/2000/svg" xmlns:xlink="http://www.w3.org/1999/xlink" version="1.1">
<metadata>
Created by FontForge 20170731 at Fri May  4 14:55:33 2018
 By Aleksey,,,
Copyright (C) unbrandeddesignstudio 2018. All Rights Reserved
</metadata>
<defs>
<font id="Devant-Medium" horiz-adv-x="503" >
  <font-face 
    font-family="Devant Medium"
    font-weight="500"
    font-stretch="normal"
    units-per-em="2048"
    panose-1="0 0 6 0 0 0 0 0 0 0"
    ascent="1638"
    descent="-410"
    x-height="1005"
    cap-height="1341"
    bbox="-4 -401 765 1704"
    underline-thickness="150"
    underline-position="-442"
    unicode-range="U+0020-007D"
  />
<missing-glyph horiz-adv-x="2459" 
 />
    <glyph glyph-name=".notdef" horiz-adv-x="2459" 
 />
    <glyph glyph-name=".null" horiz-adv-x="0" 
 />
    <glyph glyph-name="nonmarkingreturn" horiz-adv-x="682" 
 />
    <glyph glyph-name="space" unicode=" " horiz-adv-x="131" 
 />
    <glyph glyph-name="exclam" unicode="!" horiz-adv-x="218" 
d="M168 168v-168h-168v168h168zM0 1341v-1022h168v1022h-168z" />
    <glyph glyph-name="quotedbl" unicode="&#x22;" horiz-adv-x="453" 
d="M0 1341v-335h168v335h-168zM235 1341v-335h168v335h-168z" />
    <glyph glyph-name="numbersign" unicode="#" horiz-adv-x="534" 
d="M7 519h89l16 183h-89l6 77h90l22 248h76l-21 -248h130l21 248h77l-22 -248h82l-7 -77h-81l-16 -183h81l-6 -77h-82l-25 -284h-77l25 284h-130l-25 -284h-76l25 284h-90zM319 702h-130l-16 -183h130z" />
    <glyph glyph-name="dollar" unicode="$" horiz-adv-x="346" 
d="M234 85q29 11 50 31q47 44 51 104v183q2 43 -14 83t-43 64q-19 15 -35.5 20.5t-49.5 5.5h-22q-16 0 -26 11.5t-10 28.5v180q0 17 11.5 29t27.5 12q17 0 28.5 -12t11.5 -29v-45h121v32q0 66 -47 113q-26 26 -55 37l-9 72h-120l10 -73q-32 -13 -54 -36q-47 -49 -47 -113
v-179q0 -41 20.5 -78t56.5 -60t81 -23h8q35 0 35 -40v-182q0 -16 -11.5 -28t-28.5 -12q-16 0 -27.5 11.5t-11.5 28.5v39h-122v-41q6 -60 52 -103q21 -19 49 -31l10 -86h120z" />
    <glyph glyph-name="percent" unicode="%" horiz-adv-x="659" 
d="M125 907q0 10 8 17.5t19 7.5t19 -7.5t8 -17.5v-335q0 -11 -8 -19t-19 -8q-10 0 -18.5 8.5t-8.5 18.5v335zM75.5 973q-31.5 -32 -31.5 -76v-315q0 -45 31.5 -77.5t76.5 -32.5t77 32.5t32 77.5v315q0 44 -32 76t-77 32t-76.5 -32zM481 435q0 11 8.5 19.5t19.5 8.5
q10 0 18 -8.5t8 -19.5v-333q0 -11 -7.5 -18.5t-18.5 -7.5t-19.5 7.5t-8.5 18.5v333zM432 503.5q-32 -31.5 -32 -77.5v-315q0 -45 32 -76.5t77 -31.5q44 0 76 31.5t32 76.5v315q0 46 -31.5 77.5t-76.5 31.5t-77 -31.5zM440 1024l67 -2l-293 -1030l-68 2z" />
    <glyph glyph-name="ampersand" unicode="&#x26;" horiz-adv-x="573" 
d="M178.5 178.5q-16.5 19.5 -16.5 47.5v295q0 54 62 65h52v-360q0 -28 -16.5 -47.5t-40.5 -19.5t-40.5 19.5zM444 203q-4 13 -6 31v10v401q0 47 -30 77t-77 30h-84q-44 0 -64.5 19t-20.5 51v293q0 28 16.5 47.5t40.5 19.5t40.5 -19.5t16.5 -47.5v-106h161l1 15v68
q0 69 -29.5 125.5t-79.5 89t-110 32.5t-110 -32.5t-79.5 -89t-29.5 -125.5v-248q0 -98 57 -172q-57 -73 -57 -174v-249q0 -69 29.5 -125.5t79.5 -89t110 -32.5q77 0 138 57q60 -57 138 -57q8 0 28 2v164q-14 -9 -28 -9q-37 0 -51 44z" />
    <glyph glyph-name="quotesingle" unicode="'" horiz-adv-x="218" 
d="M0 1341v-335h168v335h-168z" />
    <glyph glyph-name="parenleft" unicode="(" horiz-adv-x="296" 
d="M238 128q-4 -1 -12 -1q-23 0 -39 16t-16 39v974q0 23 16 39.5t39 16.5q4 0 12 -2l4 -1l4 -2v154l-8 1h-12q-61 0 -113 -30.5t-82.5 -82.5t-30.5 -113v-934q0 -61 30.5 -113t82.5 -82.5t113 -30.5l12 1l8 1v153l-4 -1z" />
    <glyph glyph-name="parenright" unicode=")" horiz-adv-x="296" 
d="M4 130l-4 1v-153l8 -1l12 -1q61 0 113 30.5t82.5 82.5t30.5 113v934q0 61 -30.5 113t-82.5 82.5t-113 30.5h-12l-8 -1v-154l4 2l4 1q8 2 12 2q23 0 39.5 -16.5t16.5 -39.5v-974q0 -23 -16.5 -39t-39.5 -16q-7 0 -12 1z" />
    <glyph glyph-name="asterisk" unicode="*" horiz-adv-x="446" 
d="M83 1308l81 -78l-3 111h73l1 -110l77 78l52 -52l-77 -77h109v-74l-111 2l78 -80l-51 -51l-77 82l-1 -114h-73l3 113l-80 -81l-52 52l81 79l-113 -2v74h113l-81 77z" />
    <glyph glyph-name="plus" unicode="+" horiz-adv-x="446" 
d="M234 901v-161h162v-74h-162v-161h-73v161h-161v74h161v161h73z" />
    <glyph glyph-name="comma" unicode="," horiz-adv-x="218" 
d="M42 -70l20 70h-62v168h168v-168l-62 -70h-64z" />
    <glyph glyph-name="hyphen" unicode="-" horiz-adv-x="339" 
d="M0 740h289v-74h-289v74z" />
    <glyph glyph-name="period" unicode="." horiz-adv-x="218" 
d="M29 25.5q-25 24.5 -25 60.5q0 34 25 58t60 24t59.5 -24t24.5 -58q0 -36 -24.5 -60.5t-59.5 -24.5t-60 24.5z" />
    <glyph glyph-name="slash" unicode="/" horiz-adv-x="378" 
d="M0 -100l170 1541h158l-170 -1541h-158z" />
    <glyph glyph-name="zero" unicode="0" 
d="M170 1156q0 23 16.5 39.5t39.5 16.5t39.5 -16.5t16.5 -39.5v-974q0 -23 -16.5 -39t-39.5 -16t-39.5 16t-16.5 39v974zM113 1331.5q-52 -30.5 -82.5 -82.5t-30.5 -113v-934q0 -61 30.5 -113t82.5 -82.5t113 -30.5t113.5 30.5t83 82.5t30.5 113v934q0 61 -30.5 113
t-83 82.5t-113.5 30.5t-113 -30.5z" />
    <glyph glyph-name="one" unicode="1" horiz-adv-x="278" 
d="M228 1341h-228v-168l60 10v-1183h168v1341z" />
    <glyph glyph-name="two" unicode="2" horiz-adv-x="505" 
d="M323 547q106 112 125 262q6 44 6 90l1 96l-1 96v48q0 61 -30.5 113t-82.5 82.5t-113 30.5t-113 -30.5t-82.5 -82.5t-30.5 -113v-133h170v153q0 23 16.5 39.5t39.5 16.5t39.5 -16.5t16.5 -39.5v-71l1 -72q0 -104 -1 -142q-3 -129 -101 -230q-70 -72 -108 -130
t-56.5 -134.5t-18.5 -192.5v-5v-182h453v168h-285v125q0 103 140 239z" />
    <glyph glyph-name="three" unicode="3" horiz-adv-x="497" 
d="M447 1100q0 71 -30 131t-81.5 95.5t-112.5 35.5q-60 0 -111.5 -35.5t-81.5 -95.5t-30 -131v-111l1 17h164v117q0 29 17 49t41 20q25 0 42 -20t17 -49v-299q0 -30 -34.5 -51t-82.5 -21v-167q47 0 82 -18t35 -50v-301q0 -29 -17 -49t-42 -20q-24 0 -41 20t-17 49v52h-165
v-29q0 -71 30 -131.5t81.5 -96t111.5 -35.5q61 0 112.5 35.5t81.5 96t30 131.5v254q0 101 -59 178q59 76 59 176v253z" />
    <glyph glyph-name="four" unicode="4" horiz-adv-x="547" 
d="M527 525v167h-75v489h-168v-489h-116v649h-168v-816h284v-525h168v525h75z" />
    <glyph glyph-name="five" unicode="5" horiz-adv-x="497" 
d="M179 931l7 245l273 -1l4 168l-441 -1l-15 -574l99 -2l85 -2l18 -1l17 -1q22 -3 31 -10q31 -19 29 -88l-4 -448q0 -29 -17 -49t-41 -20t-41.5 20t-17.5 49v146h-165v-123q0 -71 30 -131.5t81.5 -96t112.5 -35.5q60 0 111.5 35.5t81.5 96t30 131.5l4 415q3 143 -59 217
q-48 56 -114 58z" />
    <glyph glyph-name="six" unicode="6" 
d="M265.5 834q16.5 -16 16.5 -40v-612q0 -23 -16.5 -39t-39.5 -16t-39 16t-16 39v612q0 24 16 40t39 16t39.5 -16zM453 1100v34q0 61 -30.5 108t-82 73t-114.5 26q-62 0 -113.5 -26t-82 -73t-30.5 -108v-932q0 -52 31 -99.5t83 -77t112 -29.5q61 0 113 29.5t83 77t31 99.5
v573q0 61 -30.5 113t-83 82.5t-113.5 30.5q-28 0 -55 -7v160q0 22 21 39t50 17q60 0 60 -56v-54h151z" />
    <glyph glyph-name="seven" unicode="7" horiz-adv-x="427" 
d="M377 1341h-377v-178l190 10l-130 -1173h168z" />
    <glyph glyph-name="eight" unicode="8" horiz-adv-x="497" 
d="M285 213q0 -28 -17 -48.5t-41 -20.5q-25 0 -42 20.5t-17 48.5l-3 302q0 28 17 48.5t41 20.5t41.5 -20.5t17.5 -48.5zM163 1089q0 26 16 45t39 19t39 -19t16 -45l2 -283q1 -26 -15 -45t-38 -19q-23 0 -39.5 19t-17.5 45zM433 1067q0 67 -28 123.5t-76 89.5t-105 33
q-58 0 -106.5 -33t-77 -89.5t-28.5 -123.5v-238q0 -96 57 -168q-34 -43 -51.5 -82.5t-17.5 -87.5v-254q0 -72 30 -132.5t81.5 -96t112.5 -35.5t112 35.5t81 96t30 132.5v254q0 48 -18 87t-52 83q56 71 56 168v238z" />
    <glyph glyph-name="nine" unicode="9" 
d="M188.5 509q-16.5 16 -16.5 40v612q0 23 16.5 39t39.5 16t39 -16t16 -39v-612q0 -24 -16 -40t-39 -16t-39.5 16zM1 243v-34q0 -61 30.5 -108t82 -73t114.5 -26q62 0 113.5 26t82 73t30.5 108v932q0 52 -31 99.5t-83 77t-112 29.5q-61 0 -113 -29.5t-83 -77t-31 -99.5v-573
q0 -61 30.5 -113t83 -82.5t113.5 -30.5q28 0 55 7v-160q0 -22 -21 -39t-50 -17q-60 0 -60 56v54h-151z" />
    <glyph glyph-name="colon" unicode=":" horiz-adv-x="218" 
d="M26 621.5q-25 24.5 -25 60.5q0 34 25 58t60 24t59.5 -24t24.5 -58q0 -36 -24.5 -60.5t-59.5 -24.5t-60 24.5zM26 621.5q-25 24.5 -25 60.5q0 34 25 58t60 24t59.5 -24t24.5 -58q0 -36 -24.5 -60.5t-59.5 -24.5t-60 24.5zM26 22.5q-25 24.5 -25 60.5q0 34 25 58t60 24
t59.5 -24t24.5 -58q0 -36 -24.5 -60.5t-59.5 -24.5t-60 24.5z" />
    <glyph glyph-name="semicolon" unicode=";" horiz-adv-x="218" 
d="M42 -70l20 70h-62v168h168v-168l-62 -70h-64zM26 621.5q-25 24.5 -25 60.5q0 34 25 58t60 24t59.5 -24t24.5 -58q0 -36 -24.5 -60.5t-59.5 -24.5t-60 24.5z" />
    <glyph glyph-name="less" unicode="&#x3c;" horiz-adv-x="446" 
d="M0 666v74l396 150v-74l-298 -113l298 -113v-74z" />
    <glyph glyph-name="equal" unicode="=" horiz-adv-x="446" 
d="M0 830h396v-74h-396v74zM0 640h396v-74h-396v74z" />
    <glyph glyph-name="greater" unicode="&#x3e;" horiz-adv-x="446" 
d="M396 740v-74l-396 -150v74l298 113l-298 113v74z" />
    <glyph glyph-name="question" unicode="?" 
d="M171 1157q0 23 16 39t39 16t39.5 -16t16.5 -39l9 -329v4q-2 -46 -7.5 -65t-24.5 -37l-49 -43q-22 -20 -43.5 -53t-31.5 -65q-16 -44 -17 -85l1 -165h168v183q0 27 19 44l114 135q38 45 40 145l-7 311q0 61 -30.5 113t-83 82.5t-113.5 30.5t-113 -30.5t-82.5 -82.5
t-30.5 -113v-125h171v145zM144 23.5q-25 24.5 -25 60.5q0 34 25 58t60 24t59.5 -24t24.5 -58q0 -36 -24.5 -60.5t-59.5 -24.5t-60 24.5z" />
    <glyph glyph-name="at" unicode="@" horiz-adv-x="725" 
d="M374 441q0 -4 -1 -7q-1 -6 -7 -14l-2 -1l-2 -2l-3 -2l-2 -2l-3 -2l-3 -1l-4 -1h-2l-7 -1q-14 0 -24.5 10t-10.5 23v98q-1 12 5 26.5t17 25.5q14 15 35 26l7 4l7 4v-184zM0 852v-431q0 -87 45.5 -160.5t123 -117t168.5 -43.5v110q-60 0 -111 28.5t-81 77t-30 105.5v431
q0 57 30 105.5t81 77.5t111 29t111.5 -28.5t81.5 -77.5t30 -106v-250q0 -103 -20 -141q-8 -15 -16 -19q-2 -1 -7 -1h-35v376q0 37 -19.5 68.5t-52.5 50t-72 18.5t-72 -18.5t-52.5 -50t-19.5 -68.5v-61h109v73q0 14 10.5 24t24.5 10q15 0 25.5 -10t10.5 -24v-85l-23 -13
l-23 -12l-23 -13l-6 -3l-7 -4l-15 -10q-21 -13 -33 -25q-40 -38 -48 -81q-2 -14 -2 -20v-109q0 -39 22 -72t59 -51q31 -14 63 -14q34 0 63 13h111q91 0 127 70.5t36 201.5v250q0 87 -45.5 161t-123 117.5t-169.5 43.5q-140 0 -238 -94q-99 -94 -99 -228z" />
    <glyph glyph-name="A" unicode="A" horiz-adv-x="553" 
d="M295 339h-87l43 602zM316 172l19 -172h168l-168 1341h-167l-168 -1341h168l19 172h129z" />
    <glyph glyph-name="B" unicode="B" horiz-adv-x="479" 
d="M263 865q0 -45 -29 -62q-16 -8 -30 -8h-36v374h37h4q11 0 25 -7q29 -17 29 -62v-235zM263 248q0 -44 -29 -61q-16 -9 -30 -8h-36v429h37h4q11 0 25 -7q29 -17 29 -62v-291zM428 506q0 114 -70 191q70 77 70 191l1 215v26q0 48 -2 77.5t-10 56.5q-25 78 -130 78h-287
v-1341h269q119 0 147 76q12 35 13 84v49v26z" />
    <glyph glyph-name="C" unicode="C" 
d="M453 1137q0 61 -30.5 113t-83 82.5t-113.5 30.5t-113 -30.5t-82.5 -82.5t-30.5 -113v-934q0 -61 30.5 -113t82.5 -82.5t113 -30.5t113.5 30.5t83 82.5t30.5 113v190h-171v-210q0 -23 -16.5 -39t-39.5 -16t-39.5 16t-16.5 39v974q0 23 16.5 39.5t39.5 16.5t39.5 -16.5
t16.5 -39.5v-209h169z" />
    <glyph glyph-name="D" unicode="D" horiz-adv-x="485" 
d="M264 241q0 -45 -30 -62q-17 -8 -30 -7h-36v995h36h4q10 0 26 -7q30 -16 30 -62v-857zM435 1124q0 36 -1 49q-1 50 -13 85q-27 83 -128 83h-293v-1341h288q103 0 131 82q11 33 14 85q1 13 1 48z" />
    <glyph glyph-name="E" unicode="E" horiz-adv-x="385" 
d="M168 1173h167v168h-335v-1341h335v168h-167v378h167v168h-167v459z" />
    <glyph glyph-name="F" unicode="F" horiz-adv-x="385" 
d="M168 1173h167v168h-335v-1341h168v546h115v168h-115v459z" />
    <glyph glyph-name="G" unicode="G" 
d="M453 833v304q0 61 -30.5 113t-83 82.5t-113.5 30.5t-113 -30.5t-82.5 -82.5t-30.5 -113v-934q0 -61 30.5 -113t82.5 -82.5t113 -30.5t113.5 30.5t83 82.5t30.5 113v512h-211l-13 -168h53v-364q0 -23 -16.5 -39t-39.5 -16t-39.5 16t-16.5 39v974q0 23 16.5 39.5t39.5 16.5
t39.5 -16.5t16.5 -39.5v-324h171z" />
    <glyph glyph-name="H" unicode="H" horiz-adv-x="506" 
d="M456 1341h-168v-627h-120v627h-168v-1341h168v547h120v-547h168v1341z" />
    <glyph glyph-name="I" unicode="I" horiz-adv-x="218" 
d="M168 1341v-1341h-168v1341h168z" />
    <glyph glyph-name="J" unicode="J" horiz-adv-x="316" 
d="M104 1341l-1 -1138q1 -34 -15 -52t-43 -18q-31 0 -46 16v-162q28 -2 42 -2q98 0 158 39.5t66 114.5l7 1201z" />
    <glyph glyph-name="K" unicode="K" horiz-adv-x="534" 
d="M317 630l177 711h-167l-159 -636v636h-168v-1341h168v556l151 -556h167z" />
    <glyph glyph-name="L" unicode="L" horiz-adv-x="385" 
d="M335 168h-167v1173h-168v-1341h335v168z" />
    <glyph glyph-name="M" unicode="M" horiz-adv-x="682" 
d="M632 1341h-170l-147 -755l-147 755h-168v-1341h168v525l81 -405h131l84 418v-538h168v1341z" />
    <glyph glyph-name="N" unicode="N" horiz-adv-x="497" 
d="M447 1341h-168v-659l-115 659h-164v-1341h168v535l115 -535h164v1341z" />
    <glyph glyph-name="O" unicode="O" 
d="M170 1157q0 23 16.5 39.5t39.5 16.5t39.5 -16.5t16.5 -39.5v-974q0 -23 -16.5 -39t-39.5 -16t-39.5 16t-16.5 39v974zM113 1332.5q-52 -30.5 -82.5 -82.5t-30.5 -113v-934q0 -61 30.5 -113t82.5 -82.5t113 -30.5t113.5 30.5t83 82.5t30.5 113v934q0 61 -30.5 113
t-83 82.5t-113.5 30.5t-113 -30.5z" />
    <glyph glyph-name="P" unicode="P" horiz-adv-x="478" 
d="M263 621q0 -45 -29 -62q-15 -8 -29 -7h-37v617h37h4q11 0 25 -7q29 -17 29 -62v-479zM428 1126q0 35 -1 48q-3 50 -14 85q-28 82 -126 82h-287v-1341h168v380h119q99 0 126 82q9 27 14 85q1 13 1 48v531z" />
    <glyph glyph-name="Q" unicode="Q" 
d="M175 1157q1 23 17 39.5t39 16.5t39.5 -16.5t15.5 -39.5l-8 -974q-1 -23 -17.5 -39t-39.5 -16t-39 16t-15 39zM298 -11q69 23 112 82.5t43 131.5v934q0 61 -30.5 113t-82.5 82.5t-114 30.5q-61 0 -113 -30.5t-82.5 -82.5t-30.5 -113v-934q0 -66 35.5 -121.5t95.5 -83.5
v-66q0 -55 24 -78.5t65.5 -28t136.5 -4.5h16q16 0 24 2v131h-24q-43 1 -56 2t-16 6t-3 21v6z" />
    <glyph glyph-name="R" unicode="R" horiz-adv-x="478" 
d="M168 1169h37h4q11 0 25 -7q29 -17 29 -62v-433q0 -45 -29 -62q-15 -8 -29 -7h-37v571zM0 1341v-1341h168v372h28q14 1 28 -6.5t21 -20.5t9 -42l20 -303h165l-20 315v36q0 54 -9.5 96t-40.5 69q28 39 43.5 88t15.5 87v435q0 35 -1 48q-3 50 -14 85q-28 82 -126 82h-287z
" />
    <glyph glyph-name="S" unicode="S" horiz-adv-x="505" 
d="M113 1330.5q-52 -30.5 -82.5 -82.5t-30.5 -113l-4 -337q2 -58 32.5 -109t82 -81t113.5 -28h11q50 2 52 -54l-5 -343q0 -23 -16.5 -39t-39.5 -16t-39 16t-16 39v113h-171v-115q5 -57 37 -103.5t81.5 -73.5t107.5 -27q59 0 109 27t81.5 74t36.5 104v1l5 350q0 61 -24.5 117
t-63.5 85q-49 36 -120 34l-32 -1q-22 -1 -36.5 14.5t-15.5 38.5l5 333q0 24 16 40t39 16t39.5 -16t16.5 -40v-154h171v135q0 61 -30.5 113t-83 82.5t-113.5 30.5t-113 -30.5z" />
    <glyph glyph-name="T" unicode="T" horiz-adv-x="441" 
d="M391 1173v168h-391v-168h112v-1173h167v1173h112z" />
    <glyph glyph-name="U" unicode="U" 
d="M282 183q0 -23 -16.5 -39t-39.5 -16t-39.5 16t-16.5 39v1158h-170v-1138q0 -61 30.5 -113t82.5 -82.5t113 -30.5t113.5 30.5t83 82.5t30.5 113v1138h-171v-1158z" />
    <glyph glyph-name="V" unicode="V" horiz-adv-x="553" 
d="M503 1341h-168l-84 -851l-83 851h-168l168 -1341h167z" />
    <glyph glyph-name="W" unicode="W" horiz-adv-x="815" 
d="M765 1341h-168l-57 -747l-73 567h-169l-73 -567l-57 747h-168l130 -1341h168l84 516l85 -516h168z" />
    <glyph glyph-name="X" unicode="X" horiz-adv-x="534" 
d="M317 0h167l-158 621l158 720h-167l-75 -366l-74 366h-168l158 -721l-158 -620h168l74 266z" />
    <glyph glyph-name="Y" unicode="Y" horiz-adv-x="592" 
d="M356 348l186 993h-168l-103 -586l-103 586h-168l186 -993h1v-348h168v348h1z" />
    <glyph glyph-name="Z" unicode="Z" horiz-adv-x="441" 
d="M386 1168l10 168l-396 5v-168l219 5l-222 -1013l6 -168l388 3v168l-226 3z" />
    <glyph glyph-name="bracketleft" unicode="[" horiz-adv-x="278" 
d="M228 1341h-228v-1341h228v168h-60v1005h60v168z" />
    <glyph glyph-name="backslash" unicode="\" horiz-adv-x="378" 
d="M158 1441l170 -1541h-158l-170 1541h158z" />
    <glyph glyph-name="bracketright" unicode="]" horiz-adv-x="278" 
d="M228 1341h-228v-168h60v-1005h-60v-168h228v1341z" />
    <glyph glyph-name="asciicircum" unicode="^" horiz-adv-x="356" 
d="M306 1036h-74l-79 208l-79 -208h-74l116 306h74z" />
    <glyph glyph-name="underscore" unicode="_" horiz-adv-x="446" 
d="M0 50h396v-74h-396v74z" />
    <glyph glyph-name="grave" unicode="`" horiz-adv-x="272" 
d="M0 1704l88 -268h134l-88 268h-134z" />
    <glyph glyph-name="a" unicode="a" 
d="M259.5 139.5q-15.5 -10.5 -34.5 -10.5q-22 0 -38.5 14.5t-16.5 39.5v141q-1 11 1.5 31.5t7.5 32.5l93 71l10 6v-282q0 -3 -2 -13q-5 -20 -20.5 -30.5zM112.5 982q-51.5 -26 -82 -73t-30.5 -107v-50h170v70q0 23 16.5 39t39.5 16t39.5 -16t16.5 -39v-161l-109 -62
q-36 -22 -55 -35.5t-41 -34.5q-62 -61 -74 -133q-3 -18 -3 -34v-159q0 -121 127 -183q48 -23 99 -23q50 0 98 23l129 -20v802q0 52 -31 99.5t-83 77t-113 29.5q-62 0 -113.5 -26z" />
    <glyph glyph-name="b" unicode="b" 
d="M285 183q0 -23 -16.5 -39t-39.5 -16t-39.5 16t-16.5 39l-6 619q0 23 16.5 39t39.5 16t39.5 -16t16.5 -39zM168 1000v341h-168v-1138q0 -60 30.5 -107t82 -73t113.5 -26t114 26t82.5 73t30.5 107v579q0 61 -30.5 113t-83 82.5t-113.5 30.5q-28 0 -58 -8z" />
    <glyph glyph-name="c" unicode="c" 
d="M282 183q0 -23 -16.5 -39t-39.5 -16t-39.5 16t-16.5 39v639q0 23 16.5 39t39.5 16t39.5 -16t16.5 -39v-48h171v28q0 60 -30.5 107t-82.5 73t-114 26t-113.5 -26t-82 -73t-30.5 -107v-599q0 -60 30.5 -107t82 -73t113.5 -26t114 26t82.5 73t30.5 107v33h-171v-53z" />
    <glyph glyph-name="d" unicode="d" 
d="M279 183q0 -23 -16.5 -39t-39.5 -16t-39 16t-16 39l6 639q0 23 16 39t39 16t39.5 -16t16.5 -39zM285 1341v-341q-32 8 -59 8q-62 0 -113.5 -26t-82 -73t-30.5 -107v-599q0 -60 30.5 -107t82 -73t113.5 -26t114 26t82.5 73t30.5 107v1138h-168z" />
    <glyph glyph-name="e" unicode="e" 
d="M170 607v195q0 23 16.5 39t39.5 16t39.5 -16t16.5 -39v-195h-112zM114 978.5q-52 -29.5 -83 -77t-31 -99.5v-599q0 -60 30.5 -107t82 -73t113.5 -26t114 26t82.5 73t30.5 107v33h-167l-4 -53q-2 -23 -17.5 -39t-38.5 -16t-39.5 16t-16.5 39v276h283v343q0 52 -31 99.5
t-83 77t-113 29.5q-60 0 -112 -29.5z" />
    <glyph glyph-name="f" unicode="f" horiz-adv-x="360" 
d="M156 1333.5q-52 -30.5 -82.5 -82.5t-30.5 -113l-1 -135h-43l2 -167h43l-1 -836h167l1 839l63 1l-2 167l-63 -1l1 72l3 80q0 23 16.5 39.5t39.5 16.5q25 0 41 -19v165q-19 4 -41 4q-61 0 -113 -30.5z" />
    <glyph glyph-name="g" unicode="g" horiz-adv-x="537" 
d="M235 860.5q16 16.5 40 16.5q23 0 39 -16.5t16 -39.5v-465q0 -23 -16 -39t-39 -16q-24 0 -40 16t-16 39v465q0 23 16 39.5zM304 -216q-16 -16 -39 -16q-24 0 -40 16t-16 39v84q0 23 16 39.5t40 16.5q23 0 39 -16.5t16 -39.5v-84q0 -23 -16 -39zM48 376q0 -61 28.5 -113
t78 -82.5t110.5 -30.5q28 0 53 7q5 3 18 5h4q29 -2 29 -24q0 -23 -31 -23l-76 -1q-61 -1 -112.5 -32t-81.5 -82.5t-30 -112.5v-44q0 -38 3 -62t14 -45q28 -54 86.5 -86.5t123.5 -32.5q61 0 113 30.5t82.5 82.5t30.5 113v44q0 68 -37 124l9 7q51 51 51 126v2v3q0 6 -1 9
q-1 11 -7 28q-13 41 -48 73q20 33 31.5 61t11.5 56v425q0 52 -31 99.5t-83 77t-112 29.5q-66 0 -118 -32.5t-80.5 -80.5t-28.5 -93v-425z" />
    <glyph glyph-name="h" unicode="h" 
d="M199 982q-12 -7 -24 -17l-6 -5q-2 -2 -1 -3v384h-168v-1341h170v800q0 23 16.5 39.5t39.5 16.5t39.5 -16.5t16.5 -39.5v-800h171v780q0 227 -159 227q-50 0 -95 -25z" />
    <glyph glyph-name="i" unicode="i" horiz-adv-x="218" 
d="M168 997v-997h-168v997h168zM26 1089.5q-25 24.5 -25 60.5q0 34 25 58t60 24t59.5 -24t24.5 -58q0 -36 -24.5 -60.5t-59.5 -24.5t-60 24.5z" />
    <glyph glyph-name="j" unicode="j" horiz-adv-x="318" 
d="M154.5 -326.5q52.5 30.5 83 82.5t30.5 113v1138h-168v-1077l-3 -81q0 -23 -16.5 -39t-39.5 -16q-24 0 -41 18v-165q19 -4 41 -4q61 0 113.5 30.5zM126 1093.5q-25 24.5 -25 60.5q0 34 25 58t60 24t59.5 -24t24.5 -58q0 -36 -24.5 -60.5t-59.5 -24.5t-60 24.5z" />
    <glyph glyph-name="k" unicode="k" horiz-adv-x="513" 
d="M319 453l144 553h-168l-127 -496v831h-168v-1341h168v395l137 -395h168z" />
    <glyph glyph-name="l" unicode="l" horiz-adv-x="218" 
d="M168 1341v-1341h-168v1341h168z" />
    <glyph glyph-name="m" unicode="m" horiz-adv-x="786" 
d="M457 965q-22 -20 -28 -42q-37 85 -135 85q-50 0 -95 -25q-12 -7 -24 -17l-6 -5q-2 -2 -1 -3v48h-168v-1006h170l-3 797q0 23 16.5 39.5t39.5 16.5t39.5 -16.5t16.5 -39.5l3 -797h172l-3 797q0 23 16.5 39.5t39.5 16.5t39.5 -16.5t16.5 -39.5l3 -797h170v781
q0 227 -159 227q-74 0 -120 -43z" />
    <glyph glyph-name="n" unicode="n" 
d="M199 983q-12 -7 -24 -17l-6 -5q-2 -2 -1 -3v48h-168v-1006h170l-3 801q0 23 16.5 39.5t39.5 16.5t39.5 -16.5t16.5 -39.5l3 -801h171v781q0 227 -160 227q-49 0 -94 -25z" />
    <glyph glyph-name="o" unicode="o" 
d="M170 822q0 23 16.5 39t39.5 16t39.5 -16t16.5 -39v-639q0 -23 -16.5 -39t-39.5 -16t-39.5 16t-16.5 39v639zM113 997.5q-52 -30.5 -82.5 -82.5t-30.5 -113v-599q0 -61 30.5 -113t82.5 -82.5t113 -30.5t113.5 30.5t83 82.5t30.5 113v599q0 61 -30.5 113t-83 82.5
t-113.5 30.5t-113 -30.5z" />
    <glyph glyph-name="p" unicode="p" 
d="M285 183q0 -23 -16.5 -39.5t-39.5 -16.5t-39.5 16.5t-16.5 39.5l-6 638q0 23 16.5 39.5t39.5 16.5t39.5 -16.5t16.5 -39.5zM112.5 981.5q-51.5 -25.5 -82 -72.5t-30.5 -108v-1138h168v341q30 -8 58 -8q63 0 114.5 26t82 73t30.5 108v598q0 61 -30.5 108t-82 72.5
t-114.5 25.5q-62 0 -113.5 -25.5z" />
    <glyph glyph-name="q" unicode="q" 
d="M191.5 860.5q16.5 16.5 39.5 16.5t39.5 -16.5t16.5 -39.5l-6 -638q0 -23 -16.5 -39.5t-39.5 -16.5t-39.5 16.5t-16.5 39.5l6 638q0 23 16.5 39.5zM113.5 981.5q-51.5 -25.5 -82 -72.5t-30.5 -108v-598q0 -61 30.5 -108t82 -73t114.5 -26q28 0 58 8v-341h168v1138
q0 61 -30.5 108t-82 72.5t-113.5 25.5q-63 0 -114.5 -25.5z" />
    <glyph glyph-name="r" unicode="r" horiz-adv-x="331" 
d="M301 1006q-26 -2 -56.5 -9t-48.5 -17q-8 -5 -13 -9t-9 -7l-5 -5q-2 -2 -1 -2v49h-168v-1006h170v800q0 28 15.5 48t43.5 20q33 0 72 -27v165z" />
    <glyph glyph-name="s" unicode="s" 
d="M113 995.5q-52 -30.5 -82.5 -83t-30.5 -113.5l-2 -171q1 -58 31 -109.5t81 -82.5t113 -30h11q50 0 51 -54l-3 -169q0 -23 -16.5 -39t-39.5 -16t-39 16t-16 39v36h-171v-38q5 -57 37 -103.5t81.5 -73.5t107.5 -27q59 0 109 27t81.5 74t36.5 104v1l2 175v8l-2 27
q-6 47 -22 83q-49 121 -180 118h-32q-21 -1 -35.5 15.5t-15.5 38.5l3 171q0 23 16 39.5t39 16.5t39.5 -16.5t16.5 -39.5v-56h171v36q0 61 -30.5 113.5t-83 83t-113.5 30.5t-113 -30.5z" />
    <glyph glyph-name="t" unicode="t" horiz-adv-x="329" 
d="M289 838l-10 167h-56v336h-168v-336h-55v-167h55v-838h168v838h66z" />
    <glyph glyph-name="u" unicode="u" 
d="M253 21q12 7 24 17q5 3 6 6l2 2v-47h168v1006h-171l3 -822q0 -23 -16.5 -39t-39.5 -16t-39 16t-16 39l-3 822h-171v-802q0 -99 40 -152.5t119 -53.5q51 0 94 24z" />
    <glyph glyph-name="v" unicode="v" horiz-adv-x="553" 
d="M503 1006h-168l-84 -573l-83 573h-168l168 -1006h167z" />
    <glyph glyph-name="w" unicode="w" horiz-adv-x="800" 
d="M750 1006h-169l-55 -543l-85 433h-132l-85 -433l-55 543h-169l149 -1006h160l66 372l66 -372h160z" />
    <glyph glyph-name="x" unicode="x" horiz-adv-x="516" 
d="M317 473l149 533h-168l-65 -250l-65 250h-168l149 -533l-149 -473h168l65 190l65 -190h168z" />
    <glyph glyph-name="y" unicode="y" horiz-adv-x="553" 
d="M503 1006h-168l-83 -494l-84 494h-168l168 -996h1l-67 -411h168z" />
    <glyph glyph-name="z" unicode="z" horiz-adv-x="356" 
d="M0 1006v-168h136l-136 -665v-173h306v168h-139l139 683v155h-306z" />
    <glyph glyph-name="braceleft" unicode="{" horiz-adv-x="377" 
d="M27 751h-22v-167h23q30 0 42.5 -10.5t16.5 -31.5q3 -9 3 -23l-1 -3v-88h1v-226q0 -61 30.5 -113t82.5 -82.5t113 -30.5l16 1v152q-12 -2 -16 -2q-23 0 -38 15.5t-18 39.5l-67 486l67 488q0 23 16.5 39.5t39.5 16.5q8 0 16 -3v152l-16 1q-61 0 -113 -30.5t-82.5 -82.5
t-30.5 -113v-137h-1v-179l1 -3q0 -15 -3 -24q-4 -21 -16.5 -31.5t-42.5 -10.5h-1z" />
    <glyph glyph-name="bar" unicode="|" horiz-adv-x="218" 
d="M168 1441v-1541h-168v1541h168z" />
    <glyph glyph-name="braceright" unicode="}" horiz-adv-x="377" 
d="M271.5 761.5q-12.5 10.5 -16.5 31.5q-3 9 -3 24l1 3v179h-1v137q0 61 -30.5 113t-82.5 82.5t-113 30.5l-16 -1v-152q8 3 16 3q23 0 39.5 -16.5t16.5 -39.5l67 -488l-67 -486q-3 -24 -18 -39.5t-38 -15.5q-4 0 -16 2v-152l16 -1q61 0 113 30.5t82.5 82.5t30.5 113v226h1
v88l-1 3q0 14 3 23q4 21 16.5 31.5t42.5 10.5h23v167h-22h-1q-30 0 -42.5 10.5z" />
    </font>
</defs>
</svg>
